# xmcd CD database file
#
# Track frame offsets:
#	187
#	23120
#	43135
#	66042
#
# Disc length: 1147 seconds
#
# Revision: 0
# Processed by: cddbd v1.5PL3 Copyright (c) Steve Scherf et al.
# Submitted via: CDex 1.51
#
DISCID=2e047904
DTITLE=Smap - 雪が降ってきた
DYEAR=1992
DGENRE=JPop
TTITLE0=雪が降ってきた
TTITLE1=100万の言葉
TTITLE2=雪が降ってきた(Karaoke)
TTITLE3=100万の言葉（Karaoke)
EXTD=YEAR: 1992
EXTT0=
EXTT1=
EXTT2=
EXTT3=
PLAYORDER=
